#!OML:ASF H:\Punching\Project 1\Capture day 1\Session 1\female.ASF
:FULLY-SPECIFIED
:DEGREES
1162
root 3.02121 15.6116 6.8488 17.1707 -15.7454 -3.00778
lowerback -4.82902 0.598615 2.71725
upperback -7.1569 0.741725 0.616079
thorax -4.67776 0.23799 -0.875506
lowerneck -9.7328 6.40791 13.962
upperneck 26.0275 9.18893 -11.118
head 11.1918 4.35315 -5.2659
rclavicle 1.1944e-014 -1.01132e-014
rhumerus -42.4735 13.8014 -95.5332
rradius 31.9505
rwrist -1.03283
rhand 1.81305 -12.8481
rfingers 7.12502
rthumb 27.3258 -40.8875
lclavicle 1.1944e-014 -1.01132e-014
lhumerus -49.9635 -2.05689 89.0085
lradius 36.7007
lwrist -4.38555
lhand 5.53744 14.0889
lfingers 7.12502
lthumb 30.8825 41.5128
rfemur -17.6015 10.0258 16.5604
rtibia 26.0024
rfoot -21.0008 -24.5555
rtoes -0.429612
lfemur -16.9928 -6.20269 -20.3839
ltibia 27.0869
lfoot -26.4216 28.9713
ltoes 6.78108
1163
root 3.02729 15.6101 6.85033 17.1646 -15.5929 -3.09476
lowerback -4.85297 0.552549 2.82872
upperback -7.16218 0.678957 0.65771
thorax -4.67208 0.202222 -0.89494
lowerneck -9.72222 6.41209 13.9463
upperneck 26.1559 9.21628 -11.1395
head 11.2429 4.36234 -5.2722
rclavicle -4.72141e-014 2.23633e-016
rhumerus -42.1996 13.201 -95.0843
rradius 31.9998
rwrist -1.31443
rhand 1.62255 -12.6436
rfingers 7.12502
rthumb 27.1436 -40.7117
lclavicle -4.72141e-014 2.23633e-016
lhumerus -49.7688 -1.71318 88.6142
lradius 36.8348
lwrist -4.84413
lhand 5.73015 14.0755
lfingers 7.12502
lthumb 31.0662 41.4643
rfemur -17.5144 9.52285 16.698
rtibia 25.9463
rfoot -20.9621 -24.1864
rtoes -0.541382
lfemur -17.0479 -6.14972 -20.2905
ltibia 27.2178
lfoot -26.4349 28.8053
ltoes 6.7157
1164
root 3.03309 15.6084 6.85259 17.1563 -15.4207 -3.17401
lowerback -4.88372 0.501893 2.92619
upperback -7.1664 0.610157 0.705289
thorax -4.66195 0.164382 -0.900419
lowerneck -9.72423 6.41268 13.9225
upperneck 26.3057 9.23873 -11.1552
head 11.3032 4.36874 -5.27613
rclavicle 4.41116e-014 1.28465e-014
rhumerus -41.9106 12.5635 -94.5987
rradius 32.0893
rwrist -1.70875
rhand 1.47824 -12.5051
rfingers 7.12502
rthumb 27.0055 -40.5947
lclavicle 4.41116e-014 1.28465e-014
lhumerus -49.5365 -1.37669 88.2119
lradius 37.0196
lwrist -5.22108
lhand 5.86692 14.0806
lfingers 7.12502
lthumb 31.1965 41.4444
rfemur -17.434 8.9212 16.8336
rtibia 25.9162
rfoot -20.9412 -23.7271
rtoes -0.666385
lfemur -17.1064 -6.09681 -20.2009
ltibia 27.3546
lfoot -26.4437 28.6207
ltoes 6.62711
1165
root 3.03861 15.6062 6.8553 17.1388 -15.2415 -3.23514
lowerback -4.91514 0.450905 2.99642
upperback -7.16845 0.541294 0.75358
thorax -4.64934 0.127964 -0.889983
lowerneck -9.73622 6.40912 13.8947
upperneck 26.4734 9.25507 -11.1664
head 11.3712 4.37215 -5.27902
rclavicle 1.37154e-014 1.97294e-014
rhumerus -41.6135 11.9017 -94.0874
rradius 32.2383
rwrist -2.25222
rhand 1.37606 -12.4848
rfingers 7.12502
rthumb 26.9077 -40.5895
lclavicle 1.37154e-014 1.97294e-014
lhumerus -49.2742 -1.06246 87.8146
lradius 37.2865
lwrist -5.45464
lhand 5.93711 14.1528
lfingers 7.12502
lthumb 31.2634 41.5037
rfemur -17.3728 8.23086 16.9527
rtibia 25.937
rfoot -20.9415 -23.1781
rtoes -0.819308
lfemur -17.157 -6.03297 -20.1295
ltibia 27.4837
lfoot -26.4382 28.4188
ltoes 6.51141
1166
root 3.04378 15.6036 6.85818 17.1076 -15.0633 -3.27331
lowerback -4.93997 0.401041 3.03081
upperback -7.16572 0.474702 0.801321
thorax -4.63536 0.0945465 -0.860171
lowerneck -9.76278 6.4019 13.8612
upperneck 26.657 9.26566 -11.1733
head 11.4471 4.3724 -5.28045
rclavicle 5.71564e-015 2.72087e-014
rhumerus -41.3133 11.2447 -93.5672
rradius 32.4704
rwrist -2.99102
rhand 1.28617 -12.6207
rfingers 7.12502
rthumb 26.8217 -40.7386
lclavicle 5.71564e-015 2.72087e-014
lhumerus -48.9865 -0.791465 87.4436
lradius 37.6491
lwrist -5.50776
lhand 5.88515 14.2909
lfingers 7.12502
lthumb 31.2139 41.6514
rfemur -17.3432 7.46814 17.0474
rtibia 26.0314
rfoot -20.959 -22.5492
rtoes -1.02529
lfemur -17.1918 -5.95311 -20.0829
ltibia 27.595
lfoot -26.4149 28.2006
ltoes 6.37859
1167
root 3.04855 15.6009 6.86098 17.0604 -14.8941 -3.28686
lowerback -4.95397 0.356383 3.0269
upperback -7.15676 0.415967 0.845149
thorax -4.6205 0.0669618 -0.813051
lowerneck -9.80211 6.39004 13.8224
upperneck 26.8512 9.26826 -11.174
head 11.5281 4.36876 -5.27998
rclavicle -3.05891e-014 -6.4605e-016
rhumerus -41.0065 10.5935 -93.0393
rradius 32.7694
rwrist -3.88269
rhand 1.126 -12.7724
rfingers 7.12502
rthumb 26.6684 -40.9137
lclavicle -3.05891e-014 -6.4605e-016
lhumerus -48.6779 -0.577837 87.108
lradius 38.1319
lwrist -5.35827
lhand 5.69975 14.5081
lfingers 7.12502
lthumb 31.0372 41.9025
rfemur -17.36 6.65752 17.1125
rtibia 26.223
rfoot -20.97 -21.8615
rtoes -1.36188
lfemur -17.203 -5.86009 -20.0647
ltibia 27.6776
lfoot -26.368 27.9797
ltoes 6.22349
1168
root 3.05286 15.5984 6.86353 16.9964 -14.7385 -3.27873
lowerback -4.94988 0.320414 2.98703
upperback -7.14417 0.370075 0.884904
thorax -4.61133 0.047462 -0.750057
lowerneck -9.84501 6.37001 13.774
upperneck 27.0496 9.25906 -11.1675
head 11.609 4.35948 -5.27703
rclavicle 7.81455e-015 -8.97016e-015
rhumerus -40.688 9.94593 -92.5021
rradius 33.1294
rwrist -4.91008
rhand 0.906929 -12.936
rfingers 7.12502
rthumb 26.4588 -41.1091
lclavicle 7.81455e-015 -8.97016e-015
lhumerus -48.3609 -0.436615 86.8209
lradius 38.7493
lwrist -5.00478
lhand 5.35562 14.792
lfingers 7.12502
lthumb 30.7091 42.2485
rfemur -17.4344 5.82002 17.1485
rtibia 26.5308
rfoot -20.9602 -21.1313
rtoes -1.88696
lfemur -17.1849 -5.75334 -20.0726
ltibia 27.7248
lfoot -26.2971 27.7595
ltoes 6.05567
1169
root 3.05668 15.5962 6.86593 16.9139 -14.5991 -3.24614
lowerback -4.92902 0.293384 2.90798
upperback -7.12296 0.337179 0.918071
thorax -4.60181 0.0363364 -0.671975
lowerneck -9.90016 6.34258 13.7224
upperneck 27.2488 9.23733 -11.1574
head 11.6907 4.34422 -5.27383
rclavicle -5.44653e-015 -1.14301e-014
rhumerus -40.3481 9.31115 -91.9603
rradius 33.5551
rwrist -6.04566
rhand 0.615681 -13.0752
rfingers 7.12502
rthumb 26.18 -41.2899
lclavicle -5.44653e-015 -1.14301e-014
lhumerus -48.0279 -0.373399 86.5839
lradius 39.5074
lwrist -4.45734
lhand 4.85347 15.1359
lfingers 7.12502
lthumb 30.2302 42.6813
rfemur -17.5742 4.96877 17.1515
rtibia 26.971
rfoot -20.9295 -20.3696
rtoes -2.59456
lfemur -17.1311 -5.65328 -20.1093
ltibia 27.7308
lfoot -26.2069 27.5584
ltoes 5.88111
1170
root 3.06004 15.5945 6.86815 16.814 -14.4741 -3.1995
lowerback -4.88708 0.273896 2.8004
upperback -7.09749 0.315556 0.949091
thorax -4.59913 0.0321635 -0.580157
lowerneck -9.94937 6.30808 13.665
upperneck 27.4431 9.20567 -11.1427
head 11.7675 4.32459 -5.26943
rclavicle -2.73523e-015 1.03741e-014
rhumerus -39.9885 8.6926 -91.4111
rradius 34.0449
rwrist -7.25817
rhand 0.30388 -13.166
rfingers 7.12502
rthumb 25.8814 -41.4246
lclavicle -2.73523e-015 1.03741e-014
lhumerus -47.6915 -0.381897 86.3967
lradius 40.4135
lwrist -3.74547
lhand 4.20874 15.5304
lfingers 7.12502
lthumb 29.615 43.1867
rfemur -17.7811 4.11536 17.1323
rtibia 27.5525
rfoot -20.87 -19.5829
rtoes -3.4975
lfemur -17.0396 -5.56219 -20.1634
ltibia 27.6957
lfoot -26.0992 27.3793
ltoes 5.70856
1171
root 3.06293 15.5934 6.87024 16.6954 -14.3645 -3.13679
lowerback -4.82455 0.259953 2.66228
upperback -7.06245 0.302315 0.976626
thorax -4.59755 0.0336699 -0.474886
lowerneck -10.0064 6.27 13.6061
upperneck 27.6324 9.16665 -11.1243
head 11.8429 4.30162 -5.26415
rclavicle -5.67074e-014 -2.31584e-014
rhumerus -39.5963 8.11559 -90.8716
rradius 34.5858
rwrist -8.58607
rhand -0.0793315 -13.1798
rfingers 7.12502
rthumb 25.5144 -41.4914
lclavicle -5.67074e-014 -2.31584e-014
lhumerus -47.3418 -0.459484 86.254
lradius 41.4731
lwrist -2.89591
lhand 3.45006 15.9837
lfingers 7.12502
lthumb 28.8905 43.7663
rfemur -18.0561 3.26622 17.0884
rtibia 28.2806
rfoot -20.7701 -18.7801
rtoes -4.63594
lfemur -16.9096 -5.48484 -20.2371
ltibia 27.6216
lfoot -25.977 27.2263
ltoes 5.53395
1172
root 3.06527 15.5927 6.87209 16.5582 -14.2698 -3.06384
lowerback -4.73938 0.250553 2.49932
upperback -7.0169 0.295992 1.00189
thorax -4.59739 0.0398515 -0.358122
lowerneck -10.0708 6.23017 13.5488
upperneck 27.8148 9.12216 -11.1024
head 11.9164 4.27652 -5.25827
rclavicle -2.93898e-014 -1.08338e-014
rhumerus -39.1652 7.6001 -90.3563
rradius 35.1863
rwrist -10.069
rhand -0.52873 -13.174
rfingers 7.12502
rthumb 25.0838 -41.5465
lclavicle -2.93898e-014 -1.08338e-014
lhumerus -46.9778 -0.610119 86.1562
lradius 42.6821
lwrist -1.93689
lhand 2.56383 16.4778
lfingers 7.12502
lthumb 28.0437 44.402
rfemur -18.3961 2.43357 17.0252
rtibia 29.1556
rfoot -20.6702 -17.9549
rtoes -5.84337
lfemur -16.7426 -5.41961 -20.3235
ltibia 27.5145
lfoot -25.8469 27.0958
ltoes 5.36979
